<svg xmlns="http://www.w3.org/2000/svg" xmlns:xlink="http://www.w3.org/1999/xlink" width="500" zoomAndPan="magnify" viewBox="0 0 375 374.999991" height="500" preserveAspectRatio="xMidYMid meet" version="1.2"><defs><clipPath id="dc619ce6b0"><path d="M 15.183594 3.429688 L 282 3.429688 L 282 342 L 15.183594 342 Z M 15.183594 3.429688 "/></clipPath><clipPath id="8a0619c41c"><path d="M 190 175 L 360 175 L 360 374.679688 L 190 374.679688 Z M 190 175 "/></clipPath></defs><g id="4686913681"><g clip-rule="nonzero" clip-path="url(#dc619ce6b0)"><path style=" stroke:none;fill-rule:nonzero;fill:#9313f9;fill-opacity:1;" d="M 172.871094 326.996094 L 37.457031 326.996094 C 33.414062 326.996094 30.136719 323.714844 30.136719 319.691406 L 30.136719 26.046875 C 30.136719 22.003906 33.414062 18.726562 37.457031 18.726562 L 259.039062 18.726562 C 263.078125 18.726562 266.359375 22.003906 266.359375 26.046875 L 266.359375 145.230469 C 266.359375 149.367188 269.707031 152.714844 273.847656 152.714844 C 277.976562 152.714844 281.332031 149.367188 281.332031 145.230469 L 281.332031 26.046875 C 281.332031 13.75 271.332031 3.753906 259.039062 3.753906 L 37.457031 3.753906 C 25.160156 3.753906 15.164062 13.75 15.164062 26.046875 L 15.164062 319.691406 C 15.164062 331.96875 25.160156 341.96875 37.457031 341.96875 L 172.871094 341.96875 C 177.007812 341.96875 180.355469 338.613281 180.355469 334.476562 C 180.355469 330.34375 177.007812 326.996094 172.871094 326.996094 "/></g><path style=" stroke:none;fill-rule:nonzero;fill:#9313f9;fill-opacity:1;" d="M 140.191406 84.710938 L 193.097656 84.710938 C 197.230469 84.710938 200.585938 81.355469 200.585938 77.222656 C 200.585938 73.085938 197.230469 69.738281 193.097656 69.738281 L 140.191406 69.738281 C 136.054688 69.738281 132.707031 73.085938 132.707031 77.222656 C 132.707031 81.355469 136.054688 84.710938 140.191406 84.710938 "/><path style=" stroke:none;fill-rule:nonzero;fill:#9313f9;fill-opacity:1;" d="M 237.871094 110.550781 C 237.871094 106.421875 234.515625 103.066406 230.386719 103.066406 L 138.089844 103.066406 C 133.949219 103.066406 130.601562 106.421875 130.601562 110.550781 C 130.601562 114.691406 133.949219 118.042969 138.089844 118.042969 L 230.386719 118.042969 C 234.515625 118.042969 237.871094 114.691406 237.871094 110.550781 "/><path style=" stroke:none;fill-rule:nonzero;fill:#9313f9;fill-opacity:1;" d="M 138.089844 153.824219 C 133.949219 153.824219 130.601562 157.179688 130.601562 161.3125 C 130.601562 165.449219 133.949219 168.796875 138.089844 168.796875 L 190.996094 168.796875 C 195.132812 168.796875 198.488281 165.449219 198.488281 161.3125 C 198.488281 157.179688 195.132812 153.824219 190.996094 153.824219 L 138.089844 153.824219 "/><path style=" stroke:none;fill-rule:nonzero;fill:#9313f9;fill-opacity:1;" d="M 181.652344 188.347656 L 138.082031 188.347656 C 133.945312 188.347656 130.589844 191.695312 130.589844 195.832031 C 130.589844 199.964844 133.945312 203.316406 138.082031 203.316406 L 181.652344 203.316406 C 185.792969 203.316406 189.140625 199.964844 189.140625 195.832031 C 189.140625 191.695312 185.792969 188.347656 181.652344 188.347656 "/><path style=" stroke:none;fill-rule:nonzero;fill:#9313f9;fill-opacity:1;" d="M 171.960938 239.105469 L 138.082031 239.105469 C 133.945312 239.105469 130.589844 242.453125 130.589844 246.59375 C 130.589844 250.722656 133.945312 254.078125 138.082031 254.078125 L 171.960938 254.078125 C 176.097656 254.078125 179.453125 250.722656 179.453125 246.59375 C 179.453125 242.453125 176.097656 239.105469 171.960938 239.105469 "/><path style=" stroke:none;fill-rule:nonzero;fill:#9313f9;fill-opacity:1;" d="M 138.082031 273.589844 C 133.945312 273.589844 130.589844 276.945312 130.589844 281.082031 C 130.589844 285.214844 133.945312 288.570312 138.082031 288.570312 L 172 288.570312 C 176.128906 288.570312 179.484375 285.214844 179.484375 281.082031 C 179.484375 276.945312 176.128906 273.589844 172 273.589844 L 138.082031 273.589844 "/><path style=" stroke:none;fill-rule:nonzero;fill:#9313f9;fill-opacity:1;" d="M 97.261719 246.054688 L 74.058594 268.730469 L 63.597656 258.253906 C 60.683594 255.332031 55.941406 255.324219 53.007812 258.246094 C 50.085938 261.167969 50.078125 265.902344 53.003906 268.824219 L 63.460938 279.308594 C 66.363281 282.214844 70.226562 283.8125 74.324219 283.8125 C 78.433594 283.8125 82.296875 282.214844 85.195312 279.308594 L 107.847656 256.636719 C 110.769531 253.710938 110.769531 248.96875 107.847656 246.046875 C 104.925781 243.132812 100.183594 243.125 97.261719 246.054688 "/><path style=" stroke:none;fill-rule:nonzero;fill:#9313f9;fill-opacity:1;" d="M 107.847656 160.789062 C 104.925781 157.867188 100.183594 157.859375 97.261719 160.789062 L 74.058594 183.46875 L 63.605469 172.972656 C 60.6875 170.042969 55.949219 170.035156 53.015625 172.949219 C 50.085938 175.871094 50.078125 180.605469 52.996094 183.539062 L 63.460938 194.050781 C 66.363281 196.949219 70.21875 198.546875 74.324219 198.546875 C 78.441406 198.546875 82.296875 196.949219 85.195312 194.042969 L 107.847656 171.371094 C 110.769531 168.445312 110.769531 163.703125 107.847656 160.789062 "/><path style=" stroke:none;fill-rule:nonzero;fill:#9313f9;fill-opacity:1;" d="M 109.527344 76.105469 C 106.601562 73.191406 101.859375 73.175781 98.9375 76.113281 L 75.734375 98.792969 L 65.28125 88.296875 C 62.367188 85.359375 57.625 85.359375 54.695312 88.265625 C 51.765625 91.1875 51.757812 95.929688 54.671875 98.851562 L 65.140625 109.367188 C 68.039062 112.265625 71.894531 113.863281 76.003906 113.863281 C 80.121094 113.863281 83.972656 112.265625 86.875 109.359375 L 109.527344 86.691406 C 112.449219 83.769531 112.449219 79.027344 109.527344 76.105469 "/><g clip-rule="nonzero" clip-path="url(#8a0619c41c)"><path style=" stroke:none;fill-rule:nonzero;fill:#9313f9;fill-opacity:1;" d="M 344.566406 284.699219 C 344.566406 296.660156 341.367188 308.574219 335.3125 319.144531 C 329.265625 329.679688 320.632812 338.449219 310.34375 344.496094 C 305.855469 347.128906 295.421875 351.996094 280.953125 358.207031 C 277.230469 359.808594 272.980469 359.773438 269.28125 358.101562 C 253.902344 351.183594 242.160156 345.71875 240.070312 344.496094 C 229.683594 338.390625 221.019531 329.613281 215.011719 319.136719 C 209.023438 308.65625 205.855469 296.746094 205.855469 284.699219 L 205.855469 232.671875 C 205.855469 225.820312 208.003906 219.257812 212.066406 213.710938 C 216.121094 208.164062 221.730469 204.144531 228.261719 202.074219 L 254.289062 193.855469 C 261.058594 191.710938 268.097656 190.621094 275.203125 190.621094 C 282.316406 190.621094 289.355469 191.710938 296.140625 193.855469 L 322.152344 202.074219 C 328.699219 204.144531 334.296875 208.171875 338.355469 213.710938 C 342.417969 219.265625 344.566406 225.828125 344.566406 232.671875 Z M 350.441406 204.867188 C 350.441406 204.867188 350.441406 204.863281 350.433594 204.863281 C 344.484375 196.742188 336.265625 190.84375 326.671875 187.800781 L 300.648438 179.578125 C 284.1875 174.359375 266.25 174.351562 249.769531 179.578125 L 223.75 187.800781 C 214.152344 190.835938 205.9375 196.734375 199.980469 204.863281 C 194.03125 213.011719 190.882812 222.621094 190.882812 232.671875 L 190.882812 284.699219 C 190.882812 299.351562 194.730469 313.828125 202.023438 326.578125 C 209.324219 339.320312 219.859375 349.976562 232.496094 357.410156 C 236.15625 359.550781 253.269531 367.316406 263.132812 371.761719 C 266.972656 373.484375 271.101562 374.355469 275.234375 374.355469 C 279.199219 374.355469 283.164062 373.558594 286.871094 371.964844 C 297.496094 367.398438 311.503906 361.175781 317.933594 357.402344 C 330.457031 350.042969 340.957031 339.386719 348.300781 326.59375 C 355.652344 313.753906 359.535156 299.269531 359.535156 284.699219 L 359.535156 232.671875 C 359.535156 222.628906 356.390625 213.011719 350.441406 204.867188 "/></g><path style=" stroke:none;fill-rule:nonzero;fill:#9313f9;fill-opacity:1;" d="M 308.402344 245.757812 L 263.660156 290.566406 C 263.191406 291.023438 262.789062 291.253906 262.511719 291.328125 C 261.328125 291.664062 260.238281 291.410156 259.441406 290.605469 L 242.015625 273.179688 C 239.09375 270.25 234.351562 270.25 231.429688 273.179688 C 228.507812 276.101562 228.507812 280.84375 231.429688 283.765625 L 248.839844 301.167969 C 252.269531 304.628906 256.78125 306.464844 261.476562 306.464844 C 263.148438 306.464844 264.847656 306.230469 266.53125 305.753906 C 269.296875 304.996094 271.9375 303.429688 274.210938 301.183594 L 319 256.335938 C 321.921875 253.40625 321.914062 248.671875 318.992188 245.75 C 316.0625 242.820312 311.320312 242.828125 308.402344 245.757812 "/><g style="fill:#9313f9;fill-opacity:1;"><g transform="translate(121.910277, 12.850079)"><path style="stroke:none" d="M 3.375 0.109375 C 2.882812 0.109375 2.445312 0.046875 2.0625 -0.078125 C 1.675781 -0.210938 1.351562 -0.382812 1.09375 -0.59375 C 0.84375 -0.8125 0.65625 -1.050781 0.53125 -1.3125 L 1.015625 -1.90625 L 1.15625 -1.90625 C 1.632812 -1.101562 2.375 -0.703125 3.375 -0.703125 C 3.945312 -0.703125 4.375 -0.820312 4.65625 -1.0625 C 4.945312 -1.3125 5.09375 -1.648438 5.09375 -2.078125 C 5.09375 -2.335938 5.046875 -2.550781 4.953125 -2.71875 C 4.859375 -2.894531 4.703125 -3.046875 4.484375 -3.171875 C 4.273438 -3.296875 3.984375 -3.40625 3.609375 -3.5 L 2.703125 -3.71875 C 2.035156 -3.882812 1.539062 -4.144531 1.21875 -4.5 C 0.90625 -4.851562 0.75 -5.300781 0.75 -5.84375 C 0.75 -6.21875 0.847656 -6.554688 1.046875 -6.859375 C 1.242188 -7.160156 1.53125 -7.394531 1.90625 -7.5625 C 2.289062 -7.726562 2.742188 -7.8125 3.265625 -7.8125 C 3.847656 -7.8125 4.335938 -7.726562 4.734375 -7.5625 C 5.128906 -7.40625 5.445312 -7.164062 5.6875 -6.84375 L 5.25 -6.234375 L 5.125 -6.234375 C 4.894531 -6.503906 4.628906 -6.703125 4.328125 -6.828125 C 4.023438 -6.960938 3.671875 -7.03125 3.265625 -7.03125 C 2.734375 -7.03125 2.332031 -6.925781 2.0625 -6.71875 C 1.789062 -6.507812 1.65625 -6.222656 1.65625 -5.859375 C 1.65625 -5.503906 1.753906 -5.222656 1.953125 -5.015625 C 2.148438 -4.816406 2.488281 -4.660156 2.96875 -4.546875 L 3.890625 -4.328125 C 4.640625 -4.148438 5.179688 -3.878906 5.515625 -3.515625 C 5.847656 -3.148438 6.015625 -2.6875 6.015625 -2.125 C 6.015625 -1.6875 5.914062 -1.300781 5.71875 -0.96875 C 5.53125 -0.632812 5.234375 -0.367188 4.828125 -0.171875 C 4.429688 0.015625 3.945312 0.109375 3.375 0.109375 Z M 3.375 0.109375 "/></g></g><g style="fill:#9313f9;fill-opacity:1;"><g transform="translate(128.506422, 12.850079)"><path style="stroke:none" d="M 2.875 0.109375 C 2.21875 0.109375 1.726562 -0.0625 1.40625 -0.40625 C 1.082031 -0.757812 0.921875 -1.269531 0.921875 -1.9375 L 0.921875 -5.8125 L 1.78125 -5.8125 L 1.78125 -1.96875 C 1.78125 -1.082031 2.195312 -0.640625 3.03125 -0.640625 C 3.550781 -0.640625 3.960938 -0.8125 4.265625 -1.15625 C 4.578125 -1.5 4.734375 -2.054688 4.734375 -2.828125 L 4.734375 -5.8125 L 5.59375 -5.8125 L 5.59375 0 L 4.78125 0 L 4.78125 -0.90625 L 4.671875 -0.9375 C 4.472656 -0.582031 4.234375 -0.316406 3.953125 -0.140625 C 3.671875 0.0234375 3.3125 0.109375 2.875 0.109375 Z M 2.875 0.109375 "/></g></g><g style="fill:#9313f9;fill-opacity:1;"><g transform="translate(135.102567, 12.850079)"><path style="stroke:none" d="M 1.015625 0 L 1.015625 -5.8125 L 1.828125 -5.8125 L 1.828125 -4.90625 L 1.9375 -4.875 C 2.207031 -5.539062 2.71875 -5.875 3.46875 -5.875 C 3.863281 -5.875 4.160156 -5.800781 4.359375 -5.65625 L 4.140625 -4.921875 L 4.03125 -4.90625 C 3.8125 -5.007812 3.570312 -5.0625 3.3125 -5.0625 C 2.851562 -5.0625 2.5 -4.882812 2.25 -4.53125 C 2 -4.1875 1.875 -3.628906 1.875 -2.859375 L 1.875 0 Z M 1.015625 0 "/></g></g><g style="fill:#9313f9;fill-opacity:1;"><g transform="translate(139.587736, 12.850079)"><path style="stroke:none" d="M 3.6875 0 L 2.5 0 L 0.28125 -5.8125 L 1.21875 -5.8125 L 3.046875 -0.984375 L 3.15625 -0.984375 L 4.984375 -5.8125 L 5.890625 -5.8125 Z M 3.6875 0 "/></g></g><g style="fill:#9313f9;fill-opacity:1;"><g transform="translate(145.631017, 12.850079)"><path style="stroke:none" d="M 5.546875 -2.703125 L 1.546875 -2.703125 C 1.566406 -2.003906 1.734375 -1.488281 2.046875 -1.15625 C 2.367188 -0.820312 2.800781 -0.65625 3.34375 -0.65625 C 3.757812 -0.65625 4.09375 -0.726562 4.34375 -0.875 C 4.601562 -1.03125 4.800781 -1.265625 4.9375 -1.578125 L 5.0625 -1.578125 L 5.609375 -1.25 C 5.441406 -0.820312 5.171875 -0.488281 4.796875 -0.25 C 4.429688 -0.0078125 3.945312 0.109375 3.34375 0.109375 C 2.78125 0.109375 2.296875 0 1.890625 -0.21875 C 1.492188 -0.4375 1.1875 -0.769531 0.96875 -1.21875 C 0.75 -1.675781 0.640625 -2.238281 0.640625 -2.90625 C 0.640625 -3.5625 0.753906 -4.113281 0.984375 -4.5625 C 1.210938 -5.019531 1.523438 -5.359375 1.921875 -5.578125 C 2.328125 -5.804688 2.785156 -5.921875 3.296875 -5.921875 C 4.035156 -5.921875 4.613281 -5.710938 5.03125 -5.296875 C 5.457031 -4.878906 5.671875 -4.253906 5.671875 -3.421875 C 5.671875 -3.097656 5.664062 -2.878906 5.65625 -2.765625 Z M 4.828125 -3.421875 C 4.804688 -4.046875 4.664062 -4.5 4.40625 -4.78125 C 4.144531 -5.0625 3.773438 -5.203125 3.296875 -5.203125 C 2.785156 -5.203125 2.382812 -5.054688 2.09375 -4.765625 C 1.800781 -4.484375 1.625 -4.035156 1.5625 -3.421875 Z M 4.828125 -3.421875 "/></g></g><g style="fill:#9313f9;fill-opacity:1;"><g transform="translate(151.821812, 12.850079)"><path style="stroke:none" d="M 1.171875 2.46875 C 0.972656 2.46875 0.785156 2.445312 0.609375 2.40625 C 0.441406 2.375 0.296875 2.332031 0.171875 2.28125 L 0.328125 1.59375 L 0.421875 1.5625 C 0.503906 1.601562 0.609375 1.640625 0.734375 1.671875 C 0.867188 1.703125 1.003906 1.71875 1.140625 1.71875 C 1.367188 1.71875 1.5625 1.6875 1.71875 1.625 C 1.875 1.5625 2.003906 1.457031 2.109375 1.3125 C 2.222656 1.164062 2.328125 0.960938 2.421875 0.703125 L 2.625 0.140625 L 0.296875 -5.8125 L 1.21875 -5.8125 L 3.046875 -1.0625 L 3.15625 -1.0625 L 4.921875 -5.8125 L 5.796875 -5.8125 L 3.203125 0.90625 C 3.054688 1.28125 2.890625 1.582031 2.703125 1.8125 C 2.523438 2.039062 2.3125 2.207031 2.0625 2.3125 C 1.8125 2.414062 1.515625 2.46875 1.171875 2.46875 Z M 1.171875 2.46875 "/></g></g><g style="fill:#9313f9;fill-opacity:1;"><g transform="translate(157.944172, 12.850079)"><path style="stroke:none" d="M 3.375 0.109375 C 2.882812 0.109375 2.445312 0.046875 2.0625 -0.078125 C 1.675781 -0.210938 1.351562 -0.382812 1.09375 -0.59375 C 0.84375 -0.8125 0.65625 -1.050781 0.53125 -1.3125 L 1.015625 -1.90625 L 1.15625 -1.90625 C 1.632812 -1.101562 2.375 -0.703125 3.375 -0.703125 C 3.945312 -0.703125 4.375 -0.820312 4.65625 -1.0625 C 4.945312 -1.3125 5.09375 -1.648438 5.09375 -2.078125 C 5.09375 -2.335938 5.046875 -2.550781 4.953125 -2.71875 C 4.859375 -2.894531 4.703125 -3.046875 4.484375 -3.171875 C 4.273438 -3.296875 3.984375 -3.40625 3.609375 -3.5 L 2.703125 -3.71875 C 2.035156 -3.882812 1.539062 -4.144531 1.21875 -4.5 C 0.90625 -4.851562 0.75 -5.300781 0.75 -5.84375 C 0.75 -6.21875 0.847656 -6.554688 1.046875 -6.859375 C 1.242188 -7.160156 1.53125 -7.394531 1.90625 -7.5625 C 2.289062 -7.726562 2.742188 -7.8125 3.265625 -7.8125 C 3.847656 -7.8125 4.335938 -7.726562 4.734375 -7.5625 C 5.128906 -7.40625 5.445312 -7.164062 5.6875 -6.84375 L 5.25 -6.234375 L 5.125 -6.234375 C 4.894531 -6.503906 4.628906 -6.703125 4.328125 -6.828125 C 4.023438 -6.960938 3.671875 -7.03125 3.265625 -7.03125 C 2.734375 -7.03125 2.332031 -6.925781 2.0625 -6.71875 C 1.789062 -6.507812 1.65625 -6.222656 1.65625 -5.859375 C 1.65625 -5.503906 1.753906 -5.222656 1.953125 -5.015625 C 2.148438 -4.816406 2.488281 -4.660156 2.96875 -4.546875 L 3.890625 -4.328125 C 4.640625 -4.148438 5.179688 -3.878906 5.515625 -3.515625 C 5.847656 -3.148438 6.015625 -2.6875 6.015625 -2.125 C 6.015625 -1.6875 5.914062 -1.300781 5.71875 -0.96875 C 5.53125 -0.632812 5.234375 -0.367188 4.828125 -0.171875 C 4.429688 0.015625 3.945312 0.109375 3.375 0.109375 Z M 3.375 0.109375 "/></g></g><g style="fill:#9313f9;fill-opacity:1;"><g transform="translate(164.540317, 12.850079)"><path style="stroke:none" d="M 5.546875 -2.703125 L 1.546875 -2.703125 C 1.566406 -2.003906 1.734375 -1.488281 2.046875 -1.15625 C 2.367188 -0.820312 2.800781 -0.65625 3.34375 -0.65625 C 3.757812 -0.65625 4.09375 -0.726562 4.34375 -0.875 C 4.601562 -1.03125 4.800781 -1.265625 4.9375 -1.578125 L 5.0625 -1.578125 L 5.609375 -1.25 C 5.441406 -0.820312 5.171875 -0.488281 4.796875 -0.25 C 4.429688 -0.0078125 3.945312 0.109375 3.34375 0.109375 C 2.78125 0.109375 2.296875 0 1.890625 -0.21875 C 1.492188 -0.4375 1.1875 -0.769531 0.96875 -1.21875 C 0.75 -1.675781 0.640625 -2.238281 0.640625 -2.90625 C 0.640625 -3.5625 0.753906 -4.113281 0.984375 -4.5625 C 1.210938 -5.019531 1.523438 -5.359375 1.921875 -5.578125 C 2.328125 -5.804688 2.785156 -5.921875 3.296875 -5.921875 C 4.035156 -5.921875 4.613281 -5.710938 5.03125 -5.296875 C 5.457031 -4.878906 5.671875 -4.253906 5.671875 -3.421875 C 5.671875 -3.097656 5.664062 -2.878906 5.65625 -2.765625 Z M 4.828125 -3.421875 C 4.804688 -4.046875 4.664062 -4.5 4.40625 -4.78125 C 4.144531 -5.0625 3.773438 -5.203125 3.296875 -5.203125 C 2.785156 -5.203125 2.382812 -5.054688 2.09375 -4.765625 C 1.800781 -4.484375 1.625 -4.035156 1.5625 -3.421875 Z M 4.828125 -3.421875 "/></g></g><g style="fill:#9313f9;fill-opacity:1;"><g transform="translate(170.731113, 12.850079)"><path style="stroke:none" d="M 1.015625 0 L 1.015625 -5.8125 L 1.828125 -5.8125 L 1.828125 -4.90625 L 1.9375 -4.875 C 2.207031 -5.539062 2.71875 -5.875 3.46875 -5.875 C 3.863281 -5.875 4.160156 -5.800781 4.359375 -5.65625 L 4.140625 -4.921875 L 4.03125 -4.90625 C 3.8125 -5.007812 3.570312 -5.0625 3.3125 -5.0625 C 2.851562 -5.0625 2.5 -4.882812 2.25 -4.53125 C 2 -4.1875 1.875 -3.628906 1.875 -2.859375 L 1.875 0 Z M 1.015625 0 "/></g></g><g style="fill:#9313f9;fill-opacity:1;"><g transform="translate(175.216281, 12.850079)"><path style="stroke:none" d="M 3.6875 0 L 2.5 0 L 0.28125 -5.8125 L 1.21875 -5.8125 L 3.046875 -0.984375 L 3.15625 -0.984375 L 4.984375 -5.8125 L 5.890625 -5.8125 Z M 3.6875 0 "/></g></g><g style="fill:#9313f9;fill-opacity:1;"><g transform="translate(181.259562, 12.850079)"><path style="stroke:none" d="M 5.546875 -2.703125 L 1.546875 -2.703125 C 1.566406 -2.003906 1.734375 -1.488281 2.046875 -1.15625 C 2.367188 -0.820312 2.800781 -0.65625 3.34375 -0.65625 C 3.757812 -0.65625 4.09375 -0.726562 4.34375 -0.875 C 4.601562 -1.03125 4.800781 -1.265625 4.9375 -1.578125 L 5.0625 -1.578125 L 5.609375 -1.25 C 5.441406 -0.820312 5.171875 -0.488281 4.796875 -0.25 C 4.429688 -0.0078125 3.945312 0.109375 3.34375 0.109375 C 2.78125 0.109375 2.296875 0 1.890625 -0.21875 C 1.492188 -0.4375 1.1875 -0.769531 0.96875 -1.21875 C 0.75 -1.675781 0.640625 -2.238281 0.640625 -2.90625 C 0.640625 -3.5625 0.753906 -4.113281 0.984375 -4.5625 C 1.210938 -5.019531 1.523438 -5.359375 1.921875 -5.578125 C 2.328125 -5.804688 2.785156 -5.921875 3.296875 -5.921875 C 4.035156 -5.921875 4.613281 -5.710938 5.03125 -5.296875 C 5.457031 -4.878906 5.671875 -4.253906 5.671875 -3.421875 C 5.671875 -3.097656 5.664062 -2.878906 5.65625 -2.765625 Z M 4.828125 -3.421875 C 4.804688 -4.046875 4.664062 -4.5 4.40625 -4.78125 C 4.144531 -5.0625 3.773438 -5.203125 3.296875 -5.203125 C 2.785156 -5.203125 2.382812 -5.054688 2.09375 -4.765625 C 1.800781 -4.484375 1.625 -4.035156 1.5625 -3.421875 Z M 4.828125 -3.421875 "/></g></g></g></svg>